<?xml version="1.0" encoding="utf-8"?>
<!-- Generator: Adobe Illustrator 26.0.1, SVG Export Plug-In . SVG Version: 6.00 Build 0)  -->
<svg version="1.1" id="Capa_1" xmlns="http://www.w3.org/2000/svg" xmlns:xlink="http://www.w3.org/1999/xlink" x="0px" y="0px"
	 viewBox="0 0 1920 302" style="enable-background:new 0 0 1920 302;" xml:space="preserve">
<style type="text/css">
	.st0{fill:#F26DF9;}
</style>
<path class="st0" d="M1909,26.4l-1.2-1l-1.1-1l-3.5,1h-2.3l-2.3-1h-2.3l-3.4-1h-13.8v-1l-2.3-1h-2.3l-2.3-1l-1.1-1h-2.3l-1.2-1h-1.1
	l-3.4,1l-4.7-1h-1.1l-1.1-1h-2.3l-2.3-1h-2.3l-1.2-1h-10.3l-3.5-1l-2.2,1l-1.2-1h-6.9l-1.1-1l-2.3-1h-4.6l-2.3-1l-1.2-1l-8-1l-1.1,1
	l-2.3,2h-8.1l-3.4,1l-1.2-1h-6.8l-1.2-1h-21.8l-1.2,1h-13.7l-2.3-1l-1.2-1l-2.3-1l-1.1-2h-2.3l-1.2,1h-6.9l-2.2,1h-11.5l-2.3-1
	l-1.2-1l-1.1-2h-1.2l-2.3,1h-2.3l-1.1,1h-5.7l-2.3,1h-2.3l-2.3,1l-2.3-1h-5.8l-2.3-1h-1.1l-2.3-1l-1.1-1h-3.5l-2.3,1h-6.9l-1.1,1
	h-12.7v-1h-5.7l-3.4-1h-2.3l-1.2-1h-4.6l-1.1-1h-13.8l-4.6-1l-1.1,1l-1.2-1h-10.3l-1.2,1h-2.3l-1.1-1v1h-5.7l-2.3-1h-21.9l-1.1,1
	h-2.3l-3.4,1h-4.6l-4.6-1h-19.5l-5.8-1l-1.1,1h-3.5l-1.1-1h-6.9l-1.2,1h-8l-3.4,1h-1.2l-1.1,1l-1.2-1h-2.3v1h-6.9l-1.1-1h-2.3
	l-2.3,1h-3.4l-2.3,1h-8.1l-2.3,1H1451l-1.2-1h-4.6v-1l-6.9,2h-12.6l-1.1,1l-3.5-1h-3.4l-1.2,1H1405v1h-30.9l-3.5-1h-4.6l-2.3-1
	h-10.3l-2.3-1h-6.9l-1.1,1l-2.3-1h-5.8l-2.3-1l-5.7-1h-4.6l-2.3,1l-9.2-1l-1.1-1l-2.3,1l-3.5-1l-3.4-1h-4.6l-2.3,1l-4.6-1l-8-1h-1.2
	l-2.3-1v1l-5.7-1l-9.2,2h-3.4l-3.5,1h-3.4l-3.5,1l-1.1-1l-6.9,2h-2.3l-1.2-1l-1.1,1l-3.4-1h-1.2l-3.4-1v1h-17.2l-1.2,1l-2.3-1
	l-1.1,1l-1.2-2l-2.3,1l-2.3-1h-1.1l-4.6,2l-2.3-1h-4.6l-4.6,1h-4.6l-2.3,1h-5.7l-2.3-1l-1.2,1l-5.7,1h-5.8l-3.4-1h-5.7l-4.6,1
	l-3.5-2h-10.3l-2.3-1v-2l-2.3-1h-3.4l-5.8,2H1102l1.2,1l-8.1-1v1l-4.6,2l-3.4,1l-1.2-1l-5.7,1h-2.3l-2.3,1h-2.3l-3.4,3h-3.5l-2.3,2
	h-4.6l-1.1,1l-3.5,1h-4.6l-3.4,1l-4.6,1l-1.1-1l-4.6,3h-3.5l-1.1,1h-1.2l-8,2l-1.1,1h-2.4l-1.1,1l-1.1,1l-2.3,2l-3.5-1l-5.7,1
	l-3.5,1l-4.6,2l-3.4-1h-2.3l-5.7-1l-1.2,2l-1.1-1h-1.2l-1.1,1h-10.4l-2.3-1l-4.5,2h-3.5l-4.6-1l-2.3,2l-4.6,1l-6.9,1l-5.7,1l-3.4,1
	H931l1.1,1h-2.3l-1.1,1h-2.3l1.1,1l-3.4-1l-4.6,1l-4.6,1v1l-2.3,1h-1.1l-4.6,1l-1.2,1v-1h-2.3l-2.3-1h-12.6l-4.6-1l-1.1,1h-1.2
	l-2.3-1h-8l-1.2,1h-2.3l-1.1-1l-1.2,1h-4.6l-3.4-1h-20.7l-2.3,1H830l-1.2,1h-4.6l-3.4-1h-10.4l-1.1-1h-4.6l-2.3,1l-2.3-1h-4.6
	l-2.3,1l-2.3-1h-9.2l-2.3,1l-2.2-1H776l-3.4,1l-2.3,1h-6.9l-2.3,1l-1.2-1l-1.1,1l-1.2-1h-5.7l-3.4,1h-2.3v1h-3.5l-1.1-1h-1.2l-2.3,1
	h-5.7l-4.6,1l-2.3-1h-4.6l-1.1-1h-2.3l-6.9,1h-1.2v1h-1.1l-1.2-1h-2.3l-2.3,1l-2.3-1l-1.1,1h-17.2l-1.2-1h-1.1l-5.8-1h-8l-2.3-1
	h-6.9l-6.9-2l-4.6-1h-10.3l-2.3-1h-1.1l-1.2-1l-2.3,1h-3.4l-3.5,1l-9.1,1H605l-1.2-1h-2.3l-3.4-1l-4.6-2H590v1h-4.5l-1.2-1H582
	l-1.1-1h-10.4l-3.4,1l-5.8-1h-2.2l-1.2-1h-4.6l-1.1-1h-6.9l-2.3,1l-2.3,1h-2.3l-2.3,1h-2.3l-1.1,1h-23l-3.4,1h-1.2l-1.1-1h-2.3
	l-2.3,1h-1.2l-1.1-1h-3.5l-1.1,1l-2.3,1H489v-2h-1.1l-1.2,1H481l-2.3,1l-1.1-1l-1.2,1l-1.1-1H473l-3.5,1h-5.7l-1.2-1h-1.1l-1.2,1
	h-4.6l-2.2,1v-1h-1.2l-3.4,1h-3.5l-1.1,1h-11.5l-3.5-1l-2.3,1h-4.5l-1.2,1l-1.1-1H411l-2.3-1l-2.3,1l-2.3,1h-4.6l-1.1-1h-3.5l-2.3,1
	h-10.3l-2.3,1h-8l-2.3-1h-1.2l-2.3,1l-1.1,1l-1.2-1h1.2l-1.2-1h-2.3l-1.1,1h-4.6l-4.6,1v-1l-1.2,1H349l-1.2-1v1l-2.3,1H341v-1h-1.2
	l-1.1,1h-3.5l-2.3-1l-1.1,1h-11.5H318H0v236h513.4H569v0.3c5,0.3,13,3.5,21.9,5c7.9-0.8,15.5,0.6,22.3-0.6c5.9-1.1,21,6.3,28.3,6.3
	c1.3,0,13.1,1.7,14.4,1.5c5-0.8,10.1-1.7,14.7-2.7c3.9-0.8,8.6-0.8,12.2-2.1c0.9-0.3,3.3-0.5,4.4-0.3c6.3,1.2,11.4-0.1,16.9-0.8
	c6.2,1.4,11.2,2.4,16.2,3.5c5.9-0.9,12.8-0.4,17.8-2.8v2c6.1-1.2,10.5-2.6,12.7-4.5c4.4,0.1,8.3,0.2,12,0.3c1.7,0.1,3.3,0.4,4.8,0.6
	c6.3,1,8.3,1.1,12.2-0.6c2.2-1,5.9-1,8.3-0.8c4.7,0.4,9,1.4,13.6,1.9c1.5,0.3,4.3,0,5.1,0.3c1.7,0.9,2.8,0.6,5,0.3
	c2.3-0.3,5.3,0.1,7.9,0.2c-0.4-1.2,1.8-1.4,4.2-1.2c3.7,0.5,6.2-0.1,9-0.7c1.1-0.3,2.5-0.6,3.7-0.6c4.2,0.4,8.2,0.1,12.3-0.1
	c4.3-0.2,8.5,0.1,12.7,0.3c0.9,0,1.9,0.3,2.8,0.6c4.3,1.4,9.5,2.1,15.4,2.3c3.3,0,6.9,0.8,10,0.5c2.5-0.3,5.3-0.1,8.1-0.5
	c2.2-0.3,5.1,0.3,7.9,0.3c2.3,0.1,5.4,1.1,6.8-0.5c2.8,0.1,4.8-0.4,6.6-1c0.3-0.2,1.8-0.3,2.5-0.1c5.9,1.1,12,1.2,18.2,0.6
	c4.5,1.4,7.5-0.3,10.6-0.8c6.1,0.9,12,1.5,17.3-0.5c2.4-0.8,4.2-0.4,6.1,0.3c4.5-1.1,9.2-1.9,15.4-1.4c6,0.5,11.4,0.9,16.5,2.1
	c1.4,0.4,4.2,0.2,5.9-0.1c3.5-0.8,7.2-0.6,10.9-0.5c3.2,0.1,6.4,0.6,8.9-0.6c0.5-0.3,3.3-0.2,3.7,0c1.8,1,5.1,0.6,7.3,0.7
	c5.5,0.3,11.3,0.3,16.9,0.6c1.1,0.1,2.2,0.5,3.3,0.7c2.6-0.5,5.1-1,8.1-1.2c1.3-0.1,2.8,0.4,4.7,0.7c0.7-0.3,1.7-0.7,3.1-1.2
	c4.3,1,8.9,1.9,14.4,0.3c1.8,2.6,7.3,2.6,12.8,2.6c4.1,0.1,7.9-0.3,12-0.1c1.5,0.1,3.7-0.3,5.7-0.5c1.4-0.1-0.3,1.6,3.3,0.7
	c1.1-0.3,4.2,0.3,6.1,0.8c4.1,1,7.9,1,12,0.1c3.1-0.6,6.4-1.1,8.3-1.4c6.3,0.3,11.1,0.4,15.8,0.5c5.1,0.1,10.3,0.2,15.4,0.3
	c2.5,0.1,4.5-0.2,6.8-0.8c2.2-0.6,5.4-0.7,8.4-0.9c3.3-0.2,6.8-0.3,10.1-0.3c0.9,0,1.8,0.1,2.5,0.3c4,1,4,1,6.4-0.6
	c4.7,0.5,9.4,0,13.6,1.2c1.2,0.4,4.4-0.2,6.4-0.1c2.1,0.1,4.2,0.6,6.2,0.9c0,0,0-0.3,0.2-0.5c0-0.1,0.3-0.3,0.6-0.5
	c4.1,0.5,8.1,1,12.2,1.4c0.8,0.1,2.2,0,2.4-0.2c1.4-1.1,4.2-0.6,6.4-0.6c3.1,0.1,6.2,0.3,9.2,0.5c3.5,0.3,6.7-0.1,9.8-0.6
	c2.8-0.6,5.7-0.6,7.9,0.6c1.3-0.5,2.6-0.8,3.9-1.2c0.8,0,1.3,0,1.7,0.1c1.9,0.4,3.6,0.6,5.5,1c6.3,1.3,12.7,0.9,18.1-0.5
	c3.5-1,7.4-0.6,11.1-1.2c2.1-0.1,3.8,0.4,4.1,1.4c0.3,1,2.9,1.4,5.1,0.7c2.3-0.8,4.9-1.1,7.9-1.4c3.4-0.3,6.4-0.6,10.1,0.3
	c2.4,0.6,6.6,0.3,10,0.5c8.1,0.5,16.4,0.1,24.5,0.2c1.4,0,3.1,0.7,4.4,1.2c1.5,0.7,3.1,1.3,5.6,0.5c0.6-0.1,1.6-0.3,1.9-0.2
	c9.2,1.4,17.9,0.5,27.3-0.3c0.7,0.6,1.7,1.3,2.6,1.9c3,0.1,5.5,0.5,8.3,0.6c1.1,0.1,2.5,0.1,3.1-0.1c3.9-1.3,7.5-0.7,11.4,0
	c1.3,0.2,3,0.5,4.4,0.6c1.9-0.8,3.3-1.7,4.4-2.3c4.1-0.3,5.3,1.7,10,0.9c1.7-0.3,5.3,0.8,8.3,1.2c2.8,0.5,5.9,0.6,9.5,1.2
	c0.3-0.8,0.8-1.6,1.1-2.5c4.6,2.5,9.8,2.4,15.3,0c8.9,1.6,17.3,1.6,25.4-0.1c5.5,1.4,12,0.2,17.5,0.9c3.1-1,5.6-2.5,10.8-0.9
	c1.2,0.3,5.3-0.5,7.9-0.7c4.8,1.6,4.8,1.6,18.9,0.6c2.2,1.7,6.2,2,11.2,1.5c2.2-0.3,10.7,0.2,12.7,0.7c1,0.3,2.3,0.6,3.4,0.6
	c4.6,0.1,9.6-0.2,13.8,0.8c0.5,0.1,1.4,0.1,2-0.1c6.7-1.4,13.1,0.3,19.7,0.1c1.1,0,2-0.1,3.1-0.1c1.9-0.1,3.5-0.3,5.2-0.2
	c4.5,0.4,8.7,0.8,13.2,1.3c1.3,0.1,3,0.4,3.9,0.2c3.9-0.8,5.3,0.3,7.2,1c1.7-0.2,2.9-0.5,4.2-0.7c1.2,0.4,2.3,0.8,3.7,1
	c0.9,0.1,2.4,0.1,3.3-0.1c5.8-1.2,11.3-0.7,16.9,0.1c1.3-0.5,2.4-1,3.9-1.5c1.4,0.4,3.1,0.6,5.3,1.2v-3.6c0.4-0.1,0.8-0.1,1.3-0.1
	c0.1,0.5,0.5,0.8,0.9,1.3c2-0.5,3.9-0.8,5.9-1.3c1.7,0.6,3.4,1.3,5.1,2c2.3,1,4,2.1,9,1.7c2.1-0.2,5,0.8,7.2,1.5
	c3.1,0.9,7.1,0.8,9-0.5c2.2-1.5,3.7-1.7,8.1-0.8c0.6,0.1,1.1,0.3,1.7,0.3c2.5-0.5,4.9-0.8,7.9-1.4c1.6,1,3.2,1.9,5.2,3.2
	c1.2-0.6,2.5-1,3.7-1.5c2.4,0.7,23.4-5.2,25.9-4.3c0-1,14.5-3,15.3-3.4c0.4-0.3,12.9,1.6,14.4,1.6c0.6,0,11.4-2.1,11.4-2.1
	c2.6-2.1,19.6-3.4,22-2.6c0.4,0.1,28.8-7,35.1-7h4.6v-234v-2v-20H1909z"/>
</svg>
