<svg width="76" height="77" viewBox="0 0 76 77" fill="none" xmlns="http://www.w3.org/2000/svg">
<path d="M31.8939 60.8149C42.9015 59.8204 53.2753 55.1922 61.4049 47.6488C61.9835 47.1363 62.3714 46.4405 62.5048 45.6761C62.7248 43.5482 62.7138 41.3871 62.8128 38.3173C58.8125 33.5412 53.7928 29.7375 48.1288 27.1904C45.357 25.8716 39.7364 27.4674 38.4934 30.3157C34.7867 38.7495 31.1899 47.2498 27.7692 55.8055C26.4822 59.1636 28.2311 61.1584 31.8939 60.8149Z" fill="#063565"/>
<path d="M20.1658 18.5461C25.2365 18.7899 30.3182 19.6544 35.3778 19.5214C38.199 19.5499 40.9617 18.711 43.2973 17.1165C47.873 13.4592 51.8657 9.05945 56.1774 4.92566C55.6457 4.57361 55.0948 4.25172 54.5275 3.96147C44.1882 -1.11434 33.7389 -1.11434 23.0257 2.83105C18.087 4.67076 15.3812 7.54114 15.3262 13.1046C15.3702 17.0721 16.2281 18.3577 20.1658 18.5461Z" fill="#063565"/>
<path d="M62.2952 51.1953C53.6217 58.5483 42.9182 63.0432 31.6292 64.0733C30.6723 64.173 29.7264 64.3725 28.0215 64.6385C30.8593 68.1295 33.2791 70.9888 35.578 73.9478C36.1655 74.7438 36.9656 75.355 37.8848 75.7101C38.804 76.0653 39.8045 76.1498 40.7696 75.9538C53.0998 74.5352 62.7681 68.7944 69.7857 58.3658C72.2605 54.6864 72.4035 51.5167 68.9387 47.2832C66.6839 48.5688 64.242 49.5773 62.2952 51.1953Z" fill="#063565"/>
<path d="M47.4821 23.2677C54.7717 26.4706 61.2555 31.2803 66.4558 37.3425C67.0938 38.074 69.1176 38.7611 69.2936 38.5394C71.3505 35.8353 73.1874 32.9982 74.8592 30.4713L74.5293 29.2744C72.6319 21.0033 67.9721 13.64 61.3301 8.41706C60.8319 8.16214 60.2787 8.03578 59.72 8.04932C59.1614 8.06286 58.6149 8.21587 58.1294 8.49463C54.1476 11.6753 50.2539 14.989 46.5251 18.4689C46.1458 18.7915 45.8594 19.2108 45.6958 19.683C45.5322 20.1552 45.4975 20.6631 45.5953 21.1534C45.6931 21.6438 45.9198 22.0987 46.2517 22.4706C46.5836 22.8425 47.0085 23.1178 47.4821 23.2677Z" fill="#063565"/>
<path d="M17.4063 60.4274C17.8728 60.5019 18.3496 60.4773 18.8061 60.3551C19.2626 60.233 19.6888 60.016 20.0571 59.7181C20.2616 59.2834 20.3677 58.8083 20.3677 58.3273C20.3677 57.8462 20.2616 57.3711 20.0571 56.9364C15.554 47.8 12.8462 37.8726 12.0827 27.7006C11.9067 25.2735 9.88281 24.0323 8.5409 23.0681C3.32725 23.1235 2.27132 23.9436 1.1824 28.3656C-0.811871 36.3804 -0.273539 44.8226 2.72229 52.5145C4.1302 56.2936 6.23106 58.9534 10.6308 59.2527C12.9296 59.4189 15.1295 60.1614 17.4063 60.4274Z" fill="#063565"/>
<path d="M32.2338 22.5356C26.8441 22.2918 20.4975 18.6567 16.5268 25.7717C16.0758 26.5918 15.3279 27.5338 15.4269 28.3539C16.3086 38.4583 19.2002 48.2805 23.9293 57.2351C24.5233 55.4619 24.8423 54.2539 25.3262 53.1124C28.703 45.0997 31.9258 37.0205 35.5665 29.1408C37.7664 24.2977 37.4804 22.7794 32.2338 22.5356Z" fill="#063565"/>
<path d="M16.648 63.5963C14.1842 63.2195 11.7424 62.754 9.28953 62.3218L8.68457 63.0532L20.0248 72.0301C20.3878 70.6891 20.5308 70.1904 20.6518 69.6917C21.7297 65.3806 20.8937 64.2723 16.648 63.5963Z" fill="#063565"/>
<path d="M25.2257 67.3308C24.6207 69.0154 24.0048 70.6556 23.4108 72.3955C23.3558 72.5507 23.5098 72.7834 23.6638 73.3708L31.6272 75.6649L32.0562 74.8891C30.9563 73.526 29.9444 72.1296 28.7564 70.844C27.5685 69.5584 26.4246 68.4945 25.2257 67.3308Z" fill="#063565"/>
<path d="M11.8882 9.72412C9.40233 12.9713 6.9055 16.2185 4.0127 20.0087C11.1842 19.4657 11.1842 19.4657 11.8882 9.72412Z" fill="#063565"/>
<path d="M74.3827 48.9782C74.8557 44.4233 75.2407 40.6663 75.6257 36.8982C70.654 42.1735 70.5 43.8691 74.3827 48.9782Z" fill="#063565"/>
</svg>
